<svg id="Layer_1" data-name="Layer 1" xmlns="http://www.w3.org/2000/svg" viewBox="0 0 50 50"><defs><style>.cls-1{fill:#e2f4fb;}.cls-2{fill:#59afe0;}.cls-3{fill:#cde5f2;}.cls-4{fill:#b1d6e4;}.cls-5{fill:#fdfefe;}.cls-6{fill:#fdfdfe;}.cls-7{fill:#9bceec;}.cls-8{fill:#fdb118;}.cls-9{fill:#fdcf74;}</style></defs><title>Artboard 1</title><path class="cls-1" d="M1.42,32.86l-.3-.23Z"/><path class="cls-2" d="M22.67,0h4.67c.52.14,1,.31,1.55.41C39,2.32,45.67,8.22,48.87,18c.52,1.59.76,3.26,1.13,4.89v4.44a5.76,5.76,0,0,0-.23.58q-.89,3.18-1.77,6.36l-4.2-7.4c-1.79-3-3.56-6-5.37-9-.73-1.22-2.08-1.37-2.77-.23-1.95,3.21-3.81,6.48-5.71,9.72l-1.3,2.19c-.24-.32-.5-.62-.71-1C27,27,26.07,25.5,25.13,24l-2-3.28c2.51-1.26,3.35-3.17,2.63-6a24.25,24.25,0,0,0,3.43-.18,2.91,2.91,0,0,0,2.07-3.06,3.12,3.12,0,0,0-3.08-2.81c-3.7,0-7.41,0-11.11,0-1.89,0-3.78,0-5.67,0a2.88,2.88,0,0,0-3,2.89,2.83,2.83,0,0,0,2.85,3.12,4.52,4.52,0,0,1,.73.2L6.87,23.76l-5.35,9a.15.15,0,0,0-.11.07l-.3-.23L0,27.78v-6a7.3,7.3,0,0,0,.41-1.1c2-9.91,7.91-16.39,17.47-19.55C19.43.62,21.07.37,22.67,0Z"/><path class="cls-3" d="M25.13,24C26.07,25.5,27,27,27.95,28.56c.21.34.47.64.71,1a4.15,4.15,0,0,0,.24.61c2.56,4.35,5.14,8.68,7.68,13,.53.91.95,1.89,1.42,2.84a3.15,3.15,0,0,1-.63.59,26,26,0,0,1-7.73,2.81,23.76,23.76,0,0,0-2.31.6H22.22c-.6-.15-1.21-.28-1.8-.47-1.49-.49-3-1-4.44-1.52l0-24a6.55,6.55,0,0,1,.52.4c1.71,1.6,1.74,1.63,3.37,0,.74-.75,1.24-.65,1.89.1,1.18,1.34,1.63,1.33,2.85.06C24.81,24.38,25,24.17,25.13,24Z"/><path class="cls-1" d="M16,48A24.46,24.46,0,0,1,1.53,32.79l5.35-9a13.81,13.81,0,0,1,1.21,1.13c.62.72,1.11.7,1.82.05,1.31-1.18,1.46-1.16,2.72.05.75.73,1.28.58,2-.08A7.47,7.47,0,0,1,16,24Z"/><path class="cls-4" d="M48,34.27a18.89,18.89,0,0,1-4.29,7.16,49.12,49.12,0,0,1-4.43,4A5,5,0,0,1,38,46c-.47-.95-.89-1.93-1.42-2.84-2.54-4.35-5.12-8.69-7.68-13a4.15,4.15,0,0,1-.24-.61L30,27.33a2.84,2.84,0,0,1,.37.24c1.59,1.42,1.6,1.43,3.2.1.67-.56,1.12-.24,1.62.24,1.31,1.27,1.34,1.29,2.62,0a1.21,1.21,0,0,1,2.06,0c.1.11.21.21.31.31.92.89,1.22.89,2.12,0,.51-.48,1-.95,1.55-1.42Z"/><path class="cls-5" d="M16,24a7.47,7.47,0,0,0-1.43.9c-.67.66-1.2.81-2,.08-1.25-1.21-1.41-1.23-2.72-.05-.71.64-1.21.67-1.82-.05a13.81,13.81,0,0,0-1.21-1.13L12,14.9c.66-1.1,1.32-2.2,2-3.29,1-1.66,2.75-1.67,3.77,0,.25.4.52.79.78,1.19l1.21,2.12,3.4,5.8,2,3.28c-.17.2-.32.4-.5.59-1.22,1.26-1.67,1.28-2.85-.06-.65-.75-1.15-.84-1.89-.1-1.63,1.64-1.66,1.61-3.37,0A6.55,6.55,0,0,0,16,24Z"/><path class="cls-6" d="M43.8,26.88c-.52.47-1,.94-1.55,1.42-.9.85-1.2.85-2.12,0-.11-.1-.22-.2-.31-.31a1.21,1.21,0,0,0-2.06,0c-1.27,1.29-1.31,1.27-2.62,0-.5-.48-.94-.8-1.62-.24-1.6,1.33-1.61,1.31-3.2-.1a2.84,2.84,0,0,0-.37-.24c1.9-3.24,3.76-6.51,5.71-9.72.69-1.14,2-1,2.77.23C40.24,20.84,42,23.86,43.8,26.88Z"/><path class="cls-7" d="M18.56,12.77c-.26-.4-.53-.79-.78-1.19-1-1.64-2.74-1.63-3.77,0-.68,1.09-1.33,2.19-2,3.29a4.52,4.52,0,0,0-.73-.2,2.83,2.83,0,0,1-2.85-3.12,2.88,2.88,0,0,1,3-2.89c1.89,0,3.78,0,5.67,0,3.7,0,7.41,0,11.11,0a3.12,3.12,0,0,1,3.08,2.81,2.91,2.91,0,0,1-2.07,3.06,24.16,24.16,0,0,1-3.43.18l-.09,0C24.41,11.73,21.33,10.91,18.56,12.77Z"/><path class="cls-8" d="M23.18,20.69l-3.4-5.8A8.8,8.8,0,0,1,21,14.71c1.59,0,3.18,0,4.76,0l.09,0C26.53,17.52,25.68,19.43,23.18,20.69Z"/><path class="cls-9" d="M25.72,14.68c-1.59,0-3.18,0-4.76,0a8.8,8.8,0,0,0-1.18.18l-1.21-2.12C21.33,10.91,24.41,11.73,25.72,14.68Z"/></svg>